<svg width="40" height="41" viewBox="0 0 40 41" fill="none" xmlns="http://www.w3.org/2000/svg">
<path d="M6.86383 0.84021C3.22115 0.84021 0.268158 3.7932 0.268158 7.43588V33.8186C0.268158 37.4614 3.22115 40.4143 6.86383 40.4143H33.2465C36.8893 40.4143 39.8422 37.4614 39.8422 33.8186V7.43588C39.8422 3.7932 36.8893 0.84021 33.2465 0.84021H6.86383ZM22.9889 29.5424C24.569 30.816 26.1489 31.4448 27.729 31.4287C28.6964 31.4287 29.438 31.2513 29.954 30.8967C30.4537 30.5581 30.7037 30.0744 30.7037 29.4456C30.7037 28.8008 30.4537 28.2525 29.954 27.8011C29.438 27.3498 28.4627 26.8982 27.0277 26.4468C25.3025 25.9471 23.9723 25.302 23.0373 24.5121C22.1183 23.7221 21.6507 22.6176 21.6346 21.1989C21.6346 19.8606 22.215 18.7402 23.3759 17.8373C24.5044 16.9343 25.9475 16.4829 27.7048 16.4829C30.1556 16.4829 32.1224 17.0794 33.6058 18.2726L31.9129 20.9086C31.3164 20.441 30.6311 20.1024 29.8572 19.8929C29.0833 19.6511 28.3901 19.5302 27.7774 19.5302C26.9391 19.5302 26.2698 19.6834 25.7701 19.9896C25.2704 20.2959 25.0204 20.6991 25.0204 21.1989C25.0204 21.747 25.3267 22.2146 25.9394 22.6015C26.5521 22.9724 27.6 23.3836 29.0833 23.8349C30.873 24.367 32.1466 25.0765 32.9044 25.9631C33.6623 26.8498 34.0411 27.9785 34.0411 29.3489C34.0411 30.7516 33.5009 31.9608 32.4207 32.9765C31.3566 33.9762 29.8089 34.5001 27.7774 34.5485C25.1171 34.5485 22.8922 33.7504 21.1026 32.1543L22.9889 29.5424ZM10.8301 30.9451C11.3461 31.2676 11.9668 31.4287 12.6923 31.4287C13.4501 31.4287 14.0789 31.2111 14.5787 30.7758C15.0785 30.3244 15.3284 29.5424 15.3284 28.4299V16.7732H18.5934V29.0587C18.545 30.9611 17.9967 32.3317 16.9488 33.17C16.3521 33.6697 15.6992 34.0246 14.9898 34.2341C14.2804 34.4436 13.5952 34.5485 12.9342 34.5485C11.725 34.5485 10.6528 34.339 9.71767 33.9197C8.71807 33.4683 7.87967 32.6703 7.20252 31.5255L9.47583 29.6633C9.89503 30.2277 10.3465 30.6549 10.8301 30.9451Z" fill="white"/>
</svg>
