<svg width="44" height="44" viewBox="0 0 44 44" fill="none" xmlns="http://www.w3.org/2000/svg">
<path d="M33.901 33.9984L17.8768 13.1154H12.9852V30.429H17.3136V19.4915L30.4869 36.6593C27.8981 38.2004 24.8734 39.0858 21.6421 39.0858C12.08 39.0858 4.32841 31.3343 4.32841 21.7722C4.32841 12.2101 12.08 4.45854 21.6421 4.45854C31.2042 4.45854 38.9557 12.2101 38.9557 21.7722C38.9557 26.5449 37.0246 30.8666 33.901 33.9984ZM21.6421 43.4142C33.5945 43.4142 43.2841 33.7247 43.2841 21.7722C43.2841 9.8196 33.5945 0.130127 21.6421 0.130127C9.68947 0.130127 0 9.8196 0 21.7722C0 33.7247 9.68947 43.4142 21.6421 43.4142ZM25.9705 21.7722V13.1154H30.2989V21.7722H25.9705Z" fill="white"/>
</svg>
