<svg width="47" height="42" viewBox="0 0 47 42" fill="none" xmlns="http://www.w3.org/2000/svg">
<path d="M29.0674 30.1708C27.8415 31.9036 26.5712 33.4816 25.2919 34.8716C28.907 38.3788 32.2692 40.0212 34.1346 38.9446C36 37.8679 36.2583 34.136 35.0276 29.2526C33.1836 29.6651 31.1816 29.9759 29.0674 30.1708ZM26.2355 30.3591C25.4272 30.3926 24.6066 30.4096 23.776 30.4096C22.9455 30.4096 22.1249 30.3926 21.3168 30.3591C22.1311 31.423 22.9556 32.4086 23.776 33.3068C24.5964 32.4086 25.4209 31.423 26.2355 30.3591ZM37.1323 13.3002C42.8928 14.9521 46.6549 17.6967 46.6549 21.009C46.6549 24.321 42.8928 27.0658 37.1323 28.7177C38.5815 34.5308 38.0848 39.16 35.2155 40.8161C32.3461 42.4721 28.0875 40.5874 23.776 36.4263C19.4648 40.5874 15.2061 42.4721 12.3367 40.8161C9.46743 39.16 8.9707 34.5308 10.4199 28.7177C4.65941 27.0658 0.897392 24.321 0.897392 21.009C0.897392 17.6967 4.65941 14.9521 10.4199 13.3002C8.9707 7.4871 9.46743 2.8578 12.3367 1.20173C15.2061 -0.454342 19.4648 1.43029 23.776 5.59143C28.0875 1.43029 32.3461 -0.454342 35.2155 1.20173C38.0848 2.8578 38.5815 7.4871 37.1323 13.3002ZM35.0276 12.7653C36.2583 7.88193 36 4.14991 34.1346 3.07328C32.2692 1.99664 28.907 3.63894 25.2919 7.1461C26.5712 8.53613 27.8415 10.1141 29.0674 11.8469C31.1816 12.0419 33.1836 12.3526 35.0276 12.7653ZM12.5246 29.2526C11.2939 34.136 11.5523 37.8679 13.4176 38.9446C15.283 40.0212 18.6453 38.3788 22.2604 34.8716C20.9809 33.4816 19.7106 31.9036 18.4847 30.1708C16.3706 29.9759 14.3685 29.6651 12.5246 29.2526ZM21.3168 11.6587C22.1249 11.6253 22.9455 11.6082 23.776 11.6082C24.6066 11.6082 25.4272 11.6253 26.2355 11.6587C25.4209 10.5949 24.5964 9.6091 23.776 8.711C22.9556 9.6091 22.1311 10.5949 21.3168 11.6587ZM18.4847 11.8469C19.7106 10.1141 20.9809 8.53613 22.2604 7.1461C18.6453 3.63894 15.283 1.99664 13.4176 3.07328C11.5523 4.14991 11.2939 7.88193 12.5246 12.7653C14.3685 12.3526 16.3706 12.0419 18.4847 11.8469ZM27.8696 28.0969C28.6167 27.0014 29.3467 25.8426 30.0478 24.6288C30.7488 23.4147 31.3876 22.2034 31.9631 21.009C31.3876 19.8143 30.7488 18.603 30.0478 17.3892C29.3467 16.1751 28.6167 15.0164 27.8696 13.921C26.547 13.8219 25.1784 13.7693 23.776 13.7693C22.3739 13.7693 21.0051 13.8219 19.6825 13.921C18.9355 15.0164 18.2055 16.1751 17.5044 17.3892C16.8033 18.603 16.1645 19.8143 15.589 21.009C16.1645 22.2034 16.8033 23.4147 17.5044 24.6288C18.2055 25.8426 18.9355 27.0014 19.6825 28.0969C21.0051 28.1958 22.3739 28.2486 23.776 28.2486C25.1784 28.2486 26.547 28.1958 27.8696 28.0969ZM30.6466 27.8131C31.9754 27.64 33.2416 27.4191 34.4299 27.1579C34.0619 25.9984 33.6203 24.7919 33.1058 23.5549C32.7307 24.2713 32.3351 24.9901 31.9198 25.7093C31.5046 26.4283 31.0796 27.1302 30.6466 27.8131ZM16.9057 14.2047C15.5768 14.3779 14.3106 14.5987 13.1224 14.8599C13.4902 16.0193 13.932 17.226 14.4464 18.463C14.8215 17.7466 15.217 17.0276 15.6323 16.3086C16.0475 15.5895 16.4726 14.8876 16.9057 14.2047ZM13.1224 27.1579C14.3106 27.4191 15.5768 27.64 16.9057 27.8131C16.4726 27.1302 16.0475 26.4283 15.6323 25.7093C15.217 24.9901 14.8215 24.2713 14.4464 23.5549C13.932 24.7919 13.4902 25.9984 13.1224 27.1579ZM11.0088 26.628C11.5733 24.8254 12.3052 22.9366 13.1933 21.009C12.3052 19.0811 11.5733 17.1925 11.0088 15.3897C6.16302 16.7659 3.05916 18.8557 3.05916 21.009C3.05916 23.162 6.16302 25.2518 11.0088 26.628ZM34.4299 14.8599C33.2416 14.5987 31.9754 14.3779 30.6466 14.2047C31.0796 14.8876 31.5046 15.5895 31.9198 16.3086C32.3351 17.0276 32.7307 17.7466 33.1058 18.463C33.6203 17.226 34.0619 16.0193 34.4299 14.8599ZM36.5434 15.3897C35.9788 17.1925 35.247 19.0811 34.3587 21.009C35.247 22.9366 35.9788 24.8254 36.5434 26.628C41.3892 25.2518 44.4931 23.162 44.4931 21.009C44.4931 18.8557 41.3892 16.7659 36.5434 15.3897ZM23.776 25.0698C21.5326 25.0698 19.7139 23.2517 19.7139 21.009C19.7139 18.766 21.5326 16.9479 23.776 16.9479C26.0197 16.9479 27.8384 18.766 27.8384 21.009C27.8384 23.2517 26.0197 25.0698 23.776 25.0698Z" fill="white"/>
</svg>
