<svg width="52" height="32" viewBox="0 0 52 32" fill="none" xmlns="http://www.w3.org/2000/svg">
<path d="M25.9802 0.786987C19.0548 0.786987 14.7263 4.22222 12.995 11.0927C15.592 7.65747 18.6219 6.36925 22.0846 7.22807C24.0606 7.71759 25.4717 9.13892 27.0362 10.7148C29.5835 13.2784 32.5291 16.2456 38.9654 16.2456C45.8908 16.2456 50.2194 12.8103 51.9507 5.93983C49.3536 9.37508 46.3238 10.6633 42.861 9.8045C40.8851 9.31498 39.4741 7.89363 37.9094 6.31772C35.3643 3.75417 32.4187 0.786987 25.9802 0.786987ZM12.995 16.2456C6.06952 16.2456 1.7411 19.6809 0.00973511 26.5513C2.60678 23.116 5.63666 21.8278 9.0994 22.6867C11.0753 23.1762 12.4864 24.5976 14.0511 26.1735C16.5984 28.737 19.5439 31.7042 25.9802 31.7042C32.9056 31.7042 37.2341 28.2689 38.9654 21.3985C36.3684 24.8338 33.3386 26.122 29.8758 25.2631C27.8998 24.7736 26.4887 23.3522 24.9241 21.7763C22.379 19.2128 19.4335 16.2456 12.995 16.2456Z" fill="white"/>
</svg>
